<?xml version="1.0" encoding="UTF-8"?>
<svg id="Capa_1" xmlns="http://www.w3.org/2000/svg" version="1.1" viewBox="0 0 100 100">
  <!-- Generator: Adobe Illustrator 30.1.0, SVG Export Plug-In . SVG Version: 2.1.1 Build 136)  -->
  <defs>
    <style>
      .st0 {
        fill: #fff;
      }
    </style>
  </defs>
  <path class="st0" d="M48.6,23.7c-13.8,0-25,11.1-25,24.9,0,13.8,11.1,25,24.9,25,13.8,0,25-11.1,25-24.9,0-13.8-11.1-25-24.9-25ZM48.5,32.5c8.9,0,16.2,7.2,16.3,16.1,0,8.9-7.2,16.2-16.1,16.3-8.9,0-16.2-7.2-16.3-16.1,0-8.9,7.2-16.2,16.1-16.3ZM68.8,22.7c0-3.2,2.6-5.8,5.8-5.8s5.8,2.6,5.8,5.8-2.6,5.8-5.8,5.8-5.8-2.6-5.8-5.8ZM96.9,28.6c-.4-7.8-2.1-14.7-7.9-20.4-5.7-5.7-12.6-7.5-20.4-7.9C60.7-.1,36.6-.1,28.6.3c-7.8.4-14.7,2.1-20.4,7.8C2.5,13.9.7,20.8.3,28.6-.1,36.6-.1,60.6.3,68.7c.4,7.8,2.1,14.7,7.9,20.4,5.7,5.7,12.6,7.5,20.4,7.9,8,.5,32.1.5,40.1,0,7.8-.4,14.7-2.1,20.4-7.9,5.7-5.7,7.5-12.6,7.9-20.4.5-8,.5-32.1,0-40.1ZM86.6,77.3c-1.7,4.3-5,7.5-9.2,9.2-6.4,2.5-21.6,2-28.7,2s-22.3.6-28.7-2c-4.3-1.7-7.5-5-9.2-9.2-2.5-6.4-2-21.6-2-28.7s-.6-22.3,2-28.7c1.7-4.3,5-7.5,9.2-9.2,6.4-2.5,21.6-2,28.7-2s22.3-.6,28.7,2c4.3,1.7,7.5,5,9.2,9.2,2.5,6.4,2,21.6,2,28.7s.6,22.3-2,28.7Z"/>
</svg>