<?xml version="1.0" encoding="UTF-8"?>
<svg id="Capa_1" xmlns="http://www.w3.org/2000/svg" version="1.1" viewBox="0 0 16 18">
  <!-- Generator: Adobe Illustrator 30.1.0, SVG Export Plug-In . SVG Version: 2.1.1 Build 136)  -->
  <defs>
    <style>
      .st0 {
        fill: #fff;
      }
    </style>
  </defs>
  <path class="st0" d="M15.4,7.2c-1.5,0-3-.5-4.2-1.3v6.1c0,1.1-.3,2.2-1,3.2-.6.9-1.6,1.6-2.6,2-1.1.4-2.2.5-3.3.2-1.1-.3-2.1-.9-2.8-1.7-.7-.9-1.2-1.9-1.3-3.1-.1-1.1,0-2.3.6-3.3.5-1,1.4-1.8,2.4-2.3,1-.5,2.2-.7,3.3-.6v3.1c-.5-.2-1.1-.2-1.6,0-.5.2-1,.5-1.3.9-.3.4-.5,1-.5,1.5,0,.5.2,1.1.5,1.5.3.4.8.8,1.3.9.5.2,1.1.2,1.6,0,.5-.2,1-.5,1.3-.9.3-.4.5-1,.5-1.5V0h3c0,.3,0,.5,0,.8.1.6.3,1.1.6,1.6.3.5.7.9,1.2,1.2.7.5,1.5.7,2.3.7v3h0Z"/>
</svg>