<svg width="16" height="18" viewBox="0 0 16 18" fill="none" xmlns="http://www.w3.org/2000/svg">
<path d="M15.4001 7.21531C13.8876 7.21875 12.4095 6.74781 11.1789 5.86781V12.0106C11.1789 13.1484 10.8317 14.2587 10.182 15.1938C9.53232 16.1287 8.61451 16.8438 7.54888 17.2425C6.48326 17.6412 5.32138 17.7066 4.21795 17.4247C3.11451 17.1428 2.12451 16.5344 1.37513 15.6784C0.625759 14.8225 0.161697 13.7534 0.0345094 12.6225C-0.0926781 11.4916 0.134197 10.3503 0.673884 9.35C1.21357 8.34969 2.04888 7.53844 3.06638 7.02281C4.08388 6.50719 5.22857 6.31813 6.35607 6.47281V9.56313C5.84045 9.40156 5.28701 9.405 4.77482 9.57688C4.26263 9.74875 3.81576 10.0787 3.50295 10.5153C3.19013 10.9519 3.0217 11.4812 3.02513 12.0244C3.02857 12.5675 3.20388 13.09 3.52357 13.5266C3.84326 13.9631 4.29357 14.2863 4.8092 14.4513C5.32482 14.6163 5.87826 14.6163 6.39045 14.4478C6.90263 14.2794 7.35295 13.9528 7.6692 13.5163C7.98545 13.0797 8.15732 12.5503 8.15732 12.0106V0H11.1823C11.1789 0.254375 11.2029 0.512187 11.2476 0.763125C11.3542 1.32344 11.5708 1.85969 11.8904 2.33406C12.2101 2.80844 12.6226 3.21406 13.1004 3.52344C13.7845 3.97375 14.5854 4.21438 15.4036 4.21438V7.21875L15.4001 7.21531Z" fill="black"/>
</svg>
