<?xml version="1.0" encoding="UTF-8"?>
<svg id="Capa_1" xmlns="http://www.w3.org/2000/svg" version="1.1" viewBox="0 0 24 17">
  <!-- Generator: Adobe Illustrator 30.1.0, SVG Export Plug-In . SVG Version: 2.1.1 Build 136)  -->
  <defs>
    <style>
      .st0 {
        fill: #fff;
      }
    </style>
  </defs>
  <path class="st0" d="M22.6,2.5c-.3-1-1-1.8-2-2.1-1.8-.5-9-.5-9-.5,0,0-7.2,0-9,.5C1.5.8.7,1.5.5,2.5,0,4.3,0,8.1,0,8.1c0,0,0,3.8.5,5.6.3,1,1,1.8,2,2,1.8.5,9,.5,9,.5,0,0,7.2,0,9-.5,1-.3,1.8-1,2-2,.5-1.8.5-5.6.5-5.6,0,0,0-3.8-.5-5.6h0ZM9.2,11.5v-6.9l6,3.4-6,3.4Z"/>
</svg>