<?xml version="1.0" encoding="UTF-8"?>
<svg id="Capa_2" data-name="Capa 2" xmlns="http://www.w3.org/2000/svg" viewBox="0 0 578.88 120.88">
  <defs>
    <style>
      .cls-1 {
        fill: #1d1d1b;
      }
    </style>
  </defs>
  <g id="Capa_1-2" data-name="Capa 1">
    <g>
      <g>
        <path class="cls-1" d="M220.44,25.9v10.59h-18.58v58.48h-10.59v-58.48h-18.58v-10.59h47.75Z"/>
        <path class="cls-1" d="M257.11,84.37c-4.86,0-9.12-1.19-12.78-3.56-3.66-2.37-6.5-5.56-8.53-9.57-2.03-4.01-3.04-8.46-3.04-13.35v-31.99h10.59v31.99c0,2.89.54,5.55,1.63,7.97,1.08,2.42,2.65,4.34,4.69,5.77,2.04,1.43,4.5,2.13,7.42,2.13s5.46-.7,7.49-2.13c2.02-1.43,3.57-3.36,4.62-5.77,1.06-2.42,1.58-5.07,1.58-7.97v-31.99h10.59v31.99c0,3.68-.58,7.11-1.74,10.31-1.16,3.2-2.81,6.01-4.95,8.44-2.14,2.43-4.7,4.33-7.66,5.69-2.97,1.36-6.27,2.04-9.92,2.04Z"/>
        <path class="cls-1" d="M341.45,25.9v10.59h-18.58v58.48h-10.59v-58.48h-18.58v-10.59h47.75Z"/>
        <path class="cls-1" d="M411.08,73.75V25.9h11.46l25.65,39.72V25.9h10.59v58.46h-11.42l-25.7-39.32v28.7h-10.59Z"/>
        <path class="cls-1" d="M472.84,84.36V25.9h38.11v10.59h-27.52v12.33h21.83v10.59h-21.83v14.36h27.52v10.59h-38.11Z"/>
        <path class="cls-1" d="M513.92,94.97l29.45-39.19-21.56-29.88h13.07l15.18,20.94,15.77-20.94h13.07l-22.38,29.79,22.38,28.66h-13.15l-16.31-19.22-22.4,29.83h-13.11Z"/>
        <circle class="cls-1" cx="416.38" cy="89.67" r="5.31"/>
        <g>
          <polygon class="cls-1" points="358.49 75.15 358.9 74 358.9 74 358.49 75.15"/>
          <polygon class="cls-1" points="384.68 73.75 395.99 73.75 378 25.9 365.8 25.9 343.85 84.36 355.09 84.36 358.49 75.15 358.48 75.15 358.49 75.15 358.9 74 358.9 74 362.76 63.41 371.88 40.27 384.68 73.75"/>
        </g>
      </g>
      <g>
        <circle class="cls-1" cx="129.51" cy="25.9" r="8.63"/>
        <path class="cls-1" d="M43.16,25.62c.16,4.85-3.69,8.84-8.48,8.92h-.3c-4.7-.08-8.48-3.91-8.48-8.63s4-8.77,8.89-8.63c4.49.13,8.23,3.86,8.37,8.34Z"/>
        <path class="cls-1" d="M34.68,34.54s-.1,0-.15,0-.1,0-.15,0h.3Z"/>
        <path class="cls-1" d="M133.82,42.63l-17.02,28.34-12.94,21.54-6.67,11.11h-.12c-2.22,3.32-4.94,6.28-8.04,8.76h0c-6.65,5.32-15.08,8.51-24.25,8.51-13.47,0-25.34-6.86-32.31-17.27-4.14-6.17-6.55-13.6-6.55-21.59v-41.16c2.54,1.47,5.49,2.31,8.63,2.31s6.1-.84,8.64-2.31v41.17c0,11.92,9.66,21.58,21.59,21.58.65,0,1.29-.03,1.93-.09,6.34-.56,11.89-3.86,15.46-8.7.81-1.09,1.51-2.26,2.1-3.5l9.45-15.73,6.16-10.25,6.78-11.29,10-16.64c3.16,3.54,7.76,5.76,12.88,5.76,1.49,0,2.94-.19,4.31-.54Z"/>
        <path class="cls-1" d="M82.14,94.82l2.1-3.5c-.59,1.24-1.3,2.41-2.1,3.5Z"/>
        <path class="cls-1" d="M82.14,94.82l2.1-3.5c-.59,1.24-1.3,2.41-2.1,3.5Z"/>
        <polygon class="cls-1" points="101.52 45.54 94.57 57.11 88.58 67.08 75.04 44.55 69.08 34.63 94.97 34.63 101.52 45.54"/>
        <polygon class="cls-1" points="146.79 120.87 120.9 120.88 108.97 101.01 121.91 79.47 146.79 120.87"/>
        <path class="cls-1" d="M13.21,0C6.12,0,.14,5.59,0,12.69c-.07,3.68,1.39,7.02,3.79,9.42,2.35,2.34,5.58,3.79,9.16,3.79h4.32c0-9.54,7.73-17.27,17.26-17.27s17.27,7.73,17.27,17.27h43.17C94.97,11.6,83.37,0,69.07,0H13.21Z"/>
      </g>
    </g>
  </g>
</svg>